<?xml version='1.0' encoding='utf-8'?>
<svg xmlns="http://www.w3.org/2000/svg" version="1.1" width="600px" height="976px" viewBox="0 0 600 976"> <g id="layer1"> <g style="fill:rgb(0,0,0); fill-opacity:1.0; stroke-linejoin: miter"> <path d="M260.69925,380.59976Q260.79935,380.59976,260.89838,380.60065L260.8967,380.60065Q260.7985,380.59976,260.69925,380.59976Q260.59918,380.59976,260.4981,380.60065Q260.59918,380.59976,260.69925,380.59976 Z M305.80624,383.90048Q305.80753,383.90048,305.80884,383.90048L305.80365,383.90048Q305.80496,383.90048,305.80624,383.90048 Z M312.7797,401.65695L312.7797,401.65695Q312.77655,401.65695,312.77344,401.65695Q312.7703,401.65695,312.7672,401.65695 Z M328.8315,407.1986Q328.88098,407.1986,328.92877,407.1997L328.92856,407.1997Q328.88086,407.1986,328.8315,407.1986Q328.78214,407.1986,328.73108,407.1997Q328.78214,407.1986,328.8315,407.1986 Z M233.23877,409.57697Q233.23943,409.57697,233.24007,409.57697L233.23749,409.57697Q233.23813,409.57697,233.23877,409.57697 Z M311.84,440.06683Q311.95914,440.06683,312.07437,440.07L312.07425,440.07Q311.95908,440.06683,311.84,440.06683Q311.7209,440.06683,311.59784,440.07Q311.7209,440.06683,311.84,440.06683 Z M302.16534,456.74866Q302.159,456.74866,302.15265,456.74866Q302.1463,456.74866,302.13995,456.74866 Z M315.77582,455.84503Q317.7217,455.84503,318.15494,455.87866Q318.04236,457.9911,319.1361,460.04184Q319.22675,460.1148,319.31128,460.1148Q319.32056,460.1148,319.32974,460.11392L323.0368,459.98877L323.36154,467.755Q322.80325,469.36713,322.16928,469.36713Q322.10153,469.36713,322.0329,469.3487Q321.65225,469.29663,321.04657,468.92624L318.22037,467.0414Q317.56424,466.67358,316.82208,466.46097Q316.397,466.33572,315.7187,466.20694L306.9215,464.58307Q305.04205,464.24152,304.18134,464.1911Q304.0185,461.58133,303.17462,460.34668Q302.37204,459.01825,299.73447,457.1919L299.73438,457.19177L299.73737,457.19177Q301.14005,457.2881,302.1091,457.2881Q303.28726,457.2881,303.82443,457.14572Q304.9137,456.8891,305.19894,455.90875Q313.38913,455.84573,315.15942,455.84573Q315.16965,455.84573,315.17966,455.84573Q315.49365,455.84503,315.77582,455.84503 Z M283.3882,492.89023L284.58615,494.36487L280.05905,506.2499L277.62064,492.9545L277.62064,492.9545L283.37048,492.89044L283.3882,492.89023 Z M320.2914,494.2345Q321.37546,494.30286,322.4327,494.36905L322.4295,494.36905L319.00912,512.1582L319.00912,512.1582Q317.90195,510.74786,316.6206,509.08133L320.2914,494.2345 Z M298.06064,514.48376L297.83984,515.43494L297.78873,514.9929L298.06064,514.48376 Z M298.0838,517.54395L298.75156,518.1006L298.33728,519.73505L298.0838,517.54395 Z M241.29166,499.9657Q242.42271,501.49335,244.27411,503.83228L244.69537,505.17105L237.57567,530.3817L237.57567,530.3817L241.28925,499.9657 Z M309.14063,522.3162L309.6857,522.8091L309.6857,522.8091L306.32675,535.3851L306.32675,535.3851Q306.08533,535.0803,305.88464,534.8225Q306.04498,530.38196,306.64664,528.22504Q307.19443,525.9945,309.13983,522.31744L309.14063,522.3162 Z M317.80023,531.98145L318.23352,532.71L317.04034,535.9332L317.80023,531.98145 Z M275.02765,492.9834L278.30698,510.84973L273.5167,523.4257Q273.52402,523.61597,273.64655,523.6791L278.78265,527.00415Q274.25082,534.4039,272.78326,535.974L271.95337,536.9494L268.24973,539.73865Q266.89203,539.16223,264.28543,533.34485Q262.948,530.38605,262.1812,528.24414Q261.52908,526.48083,261.21707,524.3825L260.64844,523.02246L262.8084,520.57513Q262.7242,500.56207,263.65906,493.11008L273.46387,493.00082L273.4666,493.00082Q273.74673,493.15823,274.08627,493.16147Q274.4408,493.1582,274.73068,492.98676L274.72794,492.98676L275.02765,492.9834 Z M268.44067,540.2768Q268.44046,540.2768,268.44028,540.2768Q268.4401,540.2768,268.43988,540.2768 Z M246.0903,509.60406L250.32922,523.0752Q248.76611,525.752,251.03798,530.454Q249.20963,533.5416,249.32542,534.87085Q249.30177,535.8194,250.16995,537.25916L237.44176,540.28735L237.44176,540.28735L246.0903,509.60406 Z M284.06064,540.7Q284.06183,540.7,284.06305,540.7L284.05826,540.7Q284.05945,540.7,284.06064,540.7 Z M296.25787,517.8593L297.05927,524.77734L296.2301,528.04865L293.63293,534.90765Q291.5479,535.0622,291.19016,536.4693Q291.6582,538.6401,291.4218,542.4318L291.4218,542.4318L285.01193,541.15625L285.01193,541.15625L284.61566,540.5786L287.52704,531.1179L289.2429,530.9943L296.25787,517.8593 Z M311.816,524.73535L315.43954,528.01184L315.8335,528.6743L312.99353,543.4448L312.99353,543.4448L312.9651,543.45447L312.9423,543.4352Q310.1417,540.08075,308.3159,537.84814L308.3128,537.84814L311.816,524.73535 Z M325.00507,494.5293Q350.1511,496.08795,359.14673,496.3293L359.14313,496.3293L382.1327,549.09106L327.02557,547.8107L327.02228,547.8107Q328.09634,546.6058,329.25183,545.1567L331.72983,546.5499Q333.49866,546.00085,335.08563,545.2273Q342.01022,541.14197,341.93658,538.83496Q342.05142,537.1914,337.82733,532.8572Q330.28436,527.69025,323.92154,520.8972L324.7627,519.0321Q323.5283,517.7859,321.1081,514.7954L321.1049,514.7954L325.00183,494.5293 Z M362.42322,496.3708L390.75928,552.5123L324.42126,550.4848L324.41803,550.4848Q324.511,550.3991,324.60468,550.3112L324.60794,550.3112L384.10406,551.6939Q384.15656,551.6988,384.20813,551.6988Q384.79456,551.6988,385.2622,551.0672Q385.58224,550.49426,385.3263,549.88904L361.9572,496.3735L361.9536,496.3735Q362.2004,496.37326,362.4196,496.3708 Z M323.9262,368.94684Q319.37146,369.06534,315.47964,371.313L307.60175,379.5172Q305.51172,381.96234,305.61127,382.86462L303.7686,383.0869Q303.5113,383.1599,304.50745,384.3219Q304.77798,384.63,305.36435,384.63Q305.74905,384.63,306.26968,384.49738Q306.28278,384.49518,306.29633,384.49518Q306.54648,384.49518,306.9494,385.246Q307.19525,391.8028,311.81573,396.49146Q311.21967,401.9102,311.961,401.9102Q311.96313,401.9102,311.96527,401.91016Q312.05008,402.1853,312.75366,402.1853Q313.32373,402.1853,314.29996,402.00467L314.3031,402.00467Q314.19687,403.96942,316.12704,403.96942Q316.50165,403.96942,316.95294,403.89542L316.95612,403.89542Q316.26776,405.14523,316.60123,405.6947Q319.25055,406.7923,321.32147,409.62183Q321.4747,409.78098,321.9053,409.78098Q323.43338,409.78098,328.45453,407.77682Q328.68307,407.70615,328.8916,407.70615Q329.3743,407.70615,329.74963,408.08493Q329.914,408.47015,329.25348,410.20544L327.23135,439.8177L315.1872,440.96182Q314.56195,439.5432,312.00113,439.5432Q311.64148,439.5432,311.24368,439.5712Q311.1775,439.56412,311.1112,439.56412Q309.84607,439.56412,308.55325,442.14355L304.12714,440.30807Q302.9409,435.79517,297.43027,423.5558L297.711,418.5936Q297.77332,417.47577,295.57715,415.31573Q296.02686,410.4566,295.2743,410.23483Q294.6006,409.21545,292.46103,408.62085Q274.95605,404.22986,274.22244,403.74997Q273.72565,393.48102,269.7833,383.96573Q267.34433,380.06607,260.77954,380.06607Q260.56546,380.06607,260.347,380.07022Q252.95259,381.1305,249.12476,387.4964Q247.48709,391.21136,250.51678,398.89252Q248.35948,399.32568,248.65971,401.07697Q248.73912,402.30307,249.8477,404.36334Q243.43687,406.43976,235.43044,407.4356Q233.41972,408.061,232.7965,409.29404Q232.1061,409.85605,231.2386,416.45145L230.32576,418.87323Q220.34558,432.1623,218.28229,437.68646Q216.38481,442.15082,216.47424,448.43344L195.14784,449.3461L199.78912,453.98438L231.14058,454.69366Q228.68913,458.2327,228.44826,461.28152Q228.07181,463.69275,228.0978,469.73047Q226.16148,473.65714,224.60268,500.6245Q225.65302,501.2745,226.71582,501.2745Q231.60245,501.2745,236.75246,487.53363L240.01836,489.28152L240.01836,489.28152L233.68173,541.1819L233.68173,541.1819L207.296,547.4594L206.96849,547.6279L206.80238,550.92786L213.6798,550.84436L214.4027,548.7385L233.10283,545.9234L233.10283,545.9234L233.01694,546.62695Q232.98157,546.86096,233.07028,547.16736Q233.3564,547.97504,234.27284,548.05225Q235.16364,548.0215,235.50082,547.1734L235.97502,545.491L235.97502,545.491L243.58662,544.3452L233.51077,552.4443L233.77428,556.0657Q233.73021,556.5204,234.1221,556.5204Q234.16634,556.5204,234.21614,556.5146L238.2508,556.07855L238.51746,553.5993L252.521,545.4432Q254.91864,547.68774,256.26767,548.1282Q249.36705,548.7726,248.77003,549.08105Q247.41388,549.2709,247.46455,550.4928Q248.6156,552.61035,256.41745,555.2115Q260.48505,556.3695,264.5065,556.3991Q264.81345,556.4063,265.11462,556.4063Q269.4799,556.4063,272.63657,554.8968L272.6393,554.8968Q272.4504,555.83954,272.83322,555.83954Q272.85406,555.83954,272.8766,555.83673L286.52982,555.5084L286.7128,548.55707L285.9427,543.948L285.9427,543.948L291.20447,544.99506L291.20154,544.99506Q291.12845,545.6801,291.0375,546.4062L299.3003,549.4513L300.23102,548.28876Q303.9347,550.5431,308.60995,552.13086Q308.9524,553.8603,310.14975,553.9751Q312.504,554.102,314.35532,554.102Q319.40167,554.102,320.71143,553.1592Q320.92123,553.0587,321.13663,552.9414L321.13983,552.9414L392.74707,555.1307Q392.80112,555.1335,392.85336,555.1335Q393.49585,555.1335,393.8658,554.706Q394.42432,553.9833,394.01892,553.21655L365.06796,495.9293L365.0643,495.9293Q365.5962,495.73236,365.8142,495.452Q365.36404,494.8364,374.2436,487.77686L375.77332,485.77106Q378.93753,474.9568,381.01404,458.8494L383.97433,448.6351Q384.01532,448.4829,383.38712,448.4829Q381.20187,448.4829,370.91934,450.3246L369.61475,442.75836Q368.812,423.2662,368.35492,423.01456Q367.51978,416.7856,365.05127,412.58704Q360.8384,405.6728,356.79416,402.2609Q353.73328,399.55814,348.03235,397.78442L343.88092,393.61823Q343.41373,394.26105,342.92886,394.26105Q342.21237,394.26105,341.45734,392.85736Q340.49777,391.5325,340.38547,390.57272Q339.32016,381.17242,338.59363,379.00244Q337.92435,376.42932,336.19394,374.4772Q333.53638,371.47604,324.28882,368.971L323.9262,368.94684 Z"/> </g> </g> </svg>